<svg width="929" height="209" viewBox="0 0 929 209" fill="none" xmlns="http://www.w3.org/2000/svg">
<path d="M117.217 58.908C119.005 57.1202 121.964 57.3394 123.469 59.371L132.016 70.9096C133.2 72.5088 133.078 74.7207 131.676 76.1335C128.942 78.8897 124.274 83.3681 119.939 86.4419C113.132 91.2688 108.617 93.517 100.441 95.1824C97.1623 95.8502 93.0004 95.9311 89.3645 95.812C85.9249 95.6993 84.483 91.642 86.9164 89.2086L117.217 58.908Z" fill="url(#paint0_linear_170_408)"/>
<path d="M115.283 92.1139C118.978 90.5006 122.333 94.5674 119.604 97.5357C114.165 103.453 110.708 106.82 103.468 110.31C97.9287 112.981 94.4772 115.068 88.34 114.681C86.4407 114.561 84.2829 113.915 82.2738 113.121C79.1709 111.896 79.3946 107.783 82.4521 106.448L115.283 92.1139Z" fill="url(#paint1_linear_170_408)"/>
<path d="M124.6 149.69C126.388 151.478 126.168 154.437 124.137 155.942L112.598 164.489C110.999 165.673 108.787 165.551 107.374 164.149C104.618 161.415 100.14 156.747 97.066 152.412C92.2391 145.605 89.9908 141.091 88.3254 132.914C87.6576 129.635 87.5767 125.474 87.6958 121.838C87.8085 118.398 91.8658 116.956 94.2992 119.39L124.6 149.69Z" fill="url(#paint2_linear_170_408)"/>
<path d="M91.3954 147.754C93.0087 151.449 88.9419 154.804 85.9735 152.076C80.0563 146.636 76.6895 143.179 73.1989 135.939C70.5281 130.4 68.4411 126.948 68.8286 120.811C68.9485 118.912 69.5947 116.754 70.3882 114.745C71.6136 111.642 75.7264 111.866 77.0613 114.923L91.3954 147.754Z" fill="url(#paint3_linear_170_408)"/>
<path d="M30.5135 153.541C28.7257 155.328 25.7668 155.109 24.2618 153.078L15.7148 141.539C14.5301 139.94 14.6525 137.728 16.0542 136.315C18.7889 133.559 23.4569 129.081 27.7915 126.007C34.5983 121.18 39.113 118.932 47.2897 117.266C50.5682 116.599 54.73 116.518 58.366 116.637C61.8055 116.749 63.2475 120.807 60.8141 123.24L30.5135 153.541Z" fill="url(#paint4_linear_170_408)"/>
<path d="M32.4475 120.335C28.7524 121.948 25.3975 117.881 28.1261 114.913C33.5654 108.996 37.0228 105.629 44.2626 102.138C49.8017 99.4676 53.2533 97.3806 59.3905 97.768C61.2898 97.8879 63.4475 98.5342 65.4567 99.3276C68.5596 100.553 68.3359 104.666 65.2784 106.001L32.4475 120.335Z" fill="url(#paint5_linear_170_408)"/>
<path d="M30.0213 58.5672C28.2335 56.7794 28.4527 53.8205 30.4843 52.3155L42.0229 43.7685C43.6221 42.5839 45.834 42.7062 47.2468 44.1079C50.003 46.8426 54.4813 51.5106 57.5551 55.8452C62.382 62.6521 64.6303 67.1667 66.2957 75.3434C66.9634 78.6219 67.0444 82.7837 66.9253 86.4197C66.8126 89.8592 62.7553 91.3012 60.3219 88.8678L30.0213 58.5672Z" fill="url(#paint6_linear_170_408)"/>
<path d="M63.2257 60.5031C61.6124 56.808 65.6792 53.4532 68.6476 56.1818C74.5648 61.6211 77.9316 65.0784 81.4222 72.3182C84.093 77.8574 86.18 81.309 85.7925 87.4461C85.6726 89.3454 85.0264 91.5032 84.2329 93.5123C83.0075 96.6153 78.8947 96.3915 77.5598 93.3341L63.2257 60.5031Z" fill="url(#paint7_linear_170_408)"/>
<path d="M296.104 115.186L278.104 129.913V37.9894L296.104 50.6712V115.186Z" fill="#095D94" stroke="#095D94" stroke-width="4"/>
<path d="M828.42 36.207V49.207H770.215L756.45 36.207L828.42 36.207Z" fill="#095D94" stroke="#095D94" stroke-width="4"/>
<path d="M828.42 90.207V77.207H758.92V90.207H828.42Z" fill="#095D94" stroke="#095D94" stroke-width="4"/>
<path d="M828.42 131.207V118.207H770.215L756.45 131.207H828.42Z" fill="#095D94" stroke="#095D94" stroke-width="4"/>
<path d="M538.104 36.207V49.207H479.899L466.134 36.207L538.104 36.207Z" fill="#095D94" stroke="#095D94" stroke-width="4"/>
<path d="M538.104 90.207V77.207H468.604V90.207H538.104Z" fill="#095D94" stroke="#095D94" stroke-width="4"/>
<path d="M538.104 131.207V118.207H479.899L466.134 131.207H538.104Z" fill="#095D94" stroke="#095D94" stroke-width="4"/>
<path d="M411.108 82.8802L409.932 84.2068L411.108 85.5334L452.476 132.208L428.788 132.206L384.152 84.2068L428.788 36.2068L452.476 36.2068L411.108 82.8802Z" fill="#095D94" stroke="#095D94" stroke-width="4"/>
<path d="M309.679 39.7029L358.482 90.0981L361.919 93.6469L361.919 88.7068L361.919 36.7066L375.071 36.7066L375.072 111.076L375.072 111.076L375.075 129.077L309.94 63.833L309.679 39.7029Z" fill="#095D94" stroke="#095D94" stroke-width="4"/>
<path d="M199.209 37.1338H217.191L216.57 107.718L199.209 121.915V37.1338Z" fill="#095D94" stroke="#095D94" stroke-width="4"/>
<path d="M265.893 132.134V117.134H220.205L203.998 132.134H265.893Z" fill="#095D94" stroke="#095D94" stroke-width="4"/>
<path d="M555.104 37.207H550.194L553.706 40.6378L564.714 51.3898L565.297 51.959H566.112H583.264C593.575 51.959 600.981 54.756 605.86 60.0223L605.865 60.0277L605.87 60.0331C610.76 65.233 613.392 73.3487 613.392 84.775C613.392 96.0145 610.767 104.1 605.865 109.394C600.988 114.578 593.58 117.335 583.264 117.335H566.112H565.297L564.714 117.904L553.706 128.656L550.194 132.087H555.104H584.032C598.162 132.087 609.33 128.037 617.229 119.685C625.11 111.351 628.912 99.6139 628.912 84.775C628.912 69.8479 625.023 58.063 616.965 49.7284C608.979 41.2938 597.64 37.207 583.264 37.207H555.104Z" fill="#095D94" stroke="#095D94" stroke-width="4"/>
<path d="M852.42 37.207H847.51L851.022 40.6378L862.03 51.3898L862.613 51.959H863.428H880.58C890.892 51.959 898.298 54.756 903.177 60.0223L903.182 60.0277L903.187 60.0331C908.076 65.233 910.708 73.3487 910.708 84.775C910.708 96.0145 908.084 104.1 903.182 109.394C898.305 114.578 890.897 117.335 880.58 117.335H863.428H862.613L862.03 117.904L851.022 128.656L847.51 132.087H852.42H881.348C895.478 132.087 906.647 128.037 914.545 119.685C922.426 111.351 926.228 99.6139 926.228 84.775C926.228 69.8479 922.339 58.063 914.281 49.7284C906.295 41.2938 894.956 37.207 880.58 37.207H852.42Z" fill="#095D94" stroke="#095D94" stroke-width="4"/>
<path d="M648.843 41.1826L645.574 38.4064L645.548 42.695L645.42 64.0671L645.414 65.0367L646.172 65.6418L691.868 102.142L692.415 102.579H693.116H693.372H694.109L694.67 102.101L724.908 76.3158V130.079V132.079H726.908H740.22H742.226L742.22 130.073L741.964 42.7012L741.952 38.4647L738.688 41.1666L693.186 78.8428L648.843 41.1826Z" fill="#095D94" stroke="#095D94" stroke-width="4"/>
<path d="M198.691 178.257C198.691 175.511 199.304 173.057 200.531 170.897C201.784 168.711 203.478 167.017 205.611 165.817C207.771 164.591 210.184 163.977 212.851 163.977C215.971 163.977 218.704 164.777 221.051 166.377C223.398 167.977 225.038 170.191 225.971 173.017H219.531C218.891 171.684 217.984 170.684 216.811 170.017C215.664 169.351 214.331 169.017 212.811 169.017C211.184 169.017 209.731 169.404 208.451 170.177C207.198 170.924 206.211 171.991 205.491 173.377C204.798 174.764 204.451 176.391 204.451 178.257C204.451 180.097 204.798 181.724 205.491 183.137C206.211 184.524 207.198 185.604 208.451 186.377C209.731 187.124 211.184 187.497 212.811 187.497C214.331 187.497 215.664 187.164 216.811 186.497C217.984 185.804 218.891 184.791 219.531 183.457H225.971C225.038 186.311 223.398 188.537 221.051 190.137C218.731 191.711 215.998 192.497 212.851 192.497C210.184 192.497 207.771 191.897 205.611 190.697C203.478 189.471 201.784 187.777 200.531 185.617C199.304 183.457 198.691 181.004 198.691 178.257ZM257.874 186.937H246.754L244.914 192.257H239.034L249.074 164.297H255.594L265.634 192.257H259.714L257.874 186.937ZM256.354 182.457L252.314 170.777L248.274 182.457H256.354ZM293.787 192.257L287.627 181.377H284.987V192.257H279.387V164.337H289.867C292.027 164.337 293.867 164.724 295.387 165.497C296.907 166.244 298.04 167.271 298.787 168.577C299.56 169.857 299.947 171.297 299.947 172.897C299.947 174.737 299.414 176.404 298.347 177.897C297.28 179.364 295.694 180.377 293.587 180.937L300.267 192.257H293.787ZM284.987 177.177H289.667C291.187 177.177 292.32 176.817 293.067 176.097C293.814 175.351 294.187 174.324 294.187 173.017C294.187 171.737 293.814 170.751 293.067 170.057C292.32 169.337 291.187 168.977 289.667 168.977H284.987V177.177ZM320.612 168.857V175.857H330.012V180.297H320.612V187.697H331.212V192.257H315.012V164.297H331.212V168.857H320.612ZM351.901 168.857V175.857H361.301V180.297H351.901V187.697H362.501V192.257H346.301V164.297H362.501V168.857H351.901ZM391.99 192.257L385.83 181.377H383.19V192.257H377.59V164.337H388.07C390.23 164.337 392.07 164.724 393.59 165.497C395.11 166.244 396.243 167.271 396.99 168.577C397.763 169.857 398.15 171.297 398.15 172.897C398.15 174.737 397.617 176.404 396.55 177.897C395.483 179.364 393.897 180.377 391.79 180.937L398.47 192.257H391.99ZM383.19 177.177H387.87C389.39 177.177 390.523 176.817 391.27 176.097C392.017 175.351 392.39 174.324 392.39 173.017C392.39 171.737 392.017 170.751 391.27 170.057C390.523 169.337 389.39 168.977 387.87 168.977H383.19V177.177ZM448.586 177.937C450.16 178.231 451.453 179.017 452.466 180.297C453.48 181.577 453.986 183.044 453.986 184.697C453.986 186.191 453.613 187.511 452.866 188.657C452.146 189.777 451.093 190.657 449.706 191.297C448.32 191.937 446.68 192.257 444.786 192.257H432.746V164.337H444.266C446.16 164.337 447.786 164.644 449.146 165.257C450.533 165.871 451.573 166.724 452.266 167.817C452.986 168.911 453.346 170.151 453.346 171.537C453.346 173.164 452.906 174.524 452.026 175.617C451.173 176.711 450.026 177.484 448.586 177.937ZM438.346 175.857H443.466C444.8 175.857 445.826 175.564 446.546 174.977C447.266 174.364 447.626 173.497 447.626 172.377C447.626 171.257 447.266 170.391 446.546 169.777C445.826 169.164 444.8 168.857 443.466 168.857H438.346V175.857ZM443.986 187.697C445.346 187.697 446.4 187.377 447.146 186.737C447.92 186.097 448.306 185.191 448.306 184.017C448.306 182.817 447.906 181.884 447.106 181.217C446.306 180.524 445.226 180.177 443.866 180.177H438.346V187.697H443.986ZM474.049 168.857V175.857H483.449V180.297H474.049V187.697H484.649V192.257H468.449V164.297H484.649V168.857H474.049ZM521.939 164.337L512.499 182.537V192.257H506.899V182.537L497.419 164.337H503.739L509.739 177.097L515.699 164.337H521.939ZM548.128 192.537C545.515 192.537 543.115 191.924 540.928 190.697C538.742 189.471 537.008 187.777 535.728 185.617C534.448 183.431 533.808 180.964 533.808 178.217C533.808 175.497 534.448 173.057 535.728 170.897C537.008 168.711 538.742 167.004 540.928 165.777C543.115 164.551 545.515 163.937 548.128 163.937C550.768 163.937 553.168 164.551 555.328 165.777C557.515 167.004 559.235 168.711 560.488 170.897C561.768 173.057 562.408 175.497 562.408 178.217C562.408 180.964 561.768 183.431 560.488 185.617C559.235 187.777 557.515 189.471 555.328 190.697C553.142 191.924 550.742 192.537 548.128 192.537ZM548.128 187.537C549.808 187.537 551.288 187.164 552.568 186.417C553.848 185.644 554.848 184.551 555.568 183.137C556.288 181.724 556.648 180.084 556.648 178.217C556.648 176.351 556.288 174.724 555.568 173.337C554.848 171.924 553.848 170.844 552.568 170.097C551.288 169.351 549.808 168.977 548.128 168.977C546.448 168.977 544.955 169.351 543.648 170.097C542.368 170.844 541.368 171.924 540.648 173.337C539.928 174.724 539.568 176.351 539.568 178.217C539.568 180.084 539.928 181.724 540.648 183.137C541.368 184.551 542.368 185.644 543.648 186.417C544.955 187.164 546.448 187.537 548.128 187.537ZM600.454 192.257H594.854L582.174 173.097V192.257H576.574V164.297H582.174L594.854 183.497V164.297H600.454V192.257ZM625.749 164.337C628.682 164.337 631.255 164.911 633.469 166.057C635.709 167.204 637.429 168.844 638.629 170.977C639.855 173.084 640.469 175.537 640.469 178.337C640.469 181.137 639.855 183.591 638.629 185.697C637.429 187.777 635.709 189.391 633.469 190.537C631.255 191.684 628.682 192.257 625.749 192.257H615.989V164.337H625.749ZM625.549 187.497C628.482 187.497 630.749 186.697 632.349 185.097C633.949 183.497 634.749 181.244 634.749 178.337C634.749 175.431 633.949 173.164 632.349 171.537C630.749 169.884 628.482 169.057 625.549 169.057H621.589V187.497H625.549ZM690.032 177.937C691.605 178.231 692.898 179.017 693.912 180.297C694.925 181.577 695.432 183.044 695.432 184.697C695.432 186.191 695.058 187.511 694.312 188.657C693.592 189.777 692.538 190.657 691.152 191.297C689.765 191.937 688.125 192.257 686.232 192.257H674.192V164.337H685.712C687.605 164.337 689.232 164.644 690.592 165.257C691.978 165.871 693.018 166.724 693.712 167.817C694.432 168.911 694.792 170.151 694.792 171.537C694.792 173.164 694.352 174.524 693.472 175.617C692.618 176.711 691.472 177.484 690.032 177.937ZM679.792 175.857H684.912C686.245 175.857 687.272 175.564 687.992 174.977C688.712 174.364 689.072 173.497 689.072 172.377C689.072 171.257 688.712 170.391 687.992 169.777C687.272 169.164 686.245 168.857 684.912 168.857H679.792V175.857ZM685.432 187.697C686.792 187.697 687.845 187.377 688.592 186.737C689.365 186.097 689.752 185.191 689.752 184.017C689.752 182.817 689.352 181.884 688.552 181.217C687.752 180.524 686.672 180.177 685.312 180.177H679.792V187.697H685.432ZM722.855 192.537C720.241 192.537 717.841 191.924 715.655 190.697C713.468 189.471 711.735 187.777 710.455 185.617C709.175 183.431 708.535 180.964 708.535 178.217C708.535 175.497 709.175 173.057 710.455 170.897C711.735 168.711 713.468 167.004 715.655 165.777C717.841 164.551 720.241 163.937 722.855 163.937C725.495 163.937 727.895 164.551 730.055 165.777C732.241 167.004 733.961 168.711 735.215 170.897C736.495 173.057 737.135 175.497 737.135 178.217C737.135 180.964 736.495 183.431 735.215 185.617C733.961 187.777 732.241 189.471 730.055 190.697C727.868 191.924 725.468 192.537 722.855 192.537ZM722.855 187.537C724.535 187.537 726.015 187.164 727.295 186.417C728.575 185.644 729.575 184.551 730.295 183.137C731.015 181.724 731.375 180.084 731.375 178.217C731.375 176.351 731.015 174.724 730.295 173.337C729.575 171.924 728.575 170.844 727.295 170.097C726.015 169.351 724.535 168.977 722.855 168.977C721.175 168.977 719.681 169.351 718.375 170.097C717.095 170.844 716.095 171.924 715.375 173.337C714.655 174.724 714.295 176.351 714.295 178.217C714.295 180.084 714.655 181.724 715.375 183.137C716.095 184.551 717.095 185.644 718.375 186.417C719.681 187.164 721.175 187.537 722.855 187.537ZM765.701 192.257L759.541 181.377H756.901V192.257H751.301V164.337H761.781C763.941 164.337 765.781 164.724 767.301 165.497C768.821 166.244 769.954 167.271 770.701 168.577C771.474 169.857 771.861 171.297 771.861 172.897C771.861 174.737 771.328 176.404 770.261 177.897C769.194 179.364 767.608 180.377 765.501 180.937L772.181 192.257H765.701ZM756.901 177.177H761.581C763.101 177.177 764.234 176.817 764.981 176.097C765.728 175.351 766.101 174.324 766.101 173.017C766.101 171.737 765.728 170.751 764.981 170.057C764.234 169.337 763.101 168.977 761.581 168.977H756.901V177.177ZM796.686 164.337C799.619 164.337 802.193 164.911 804.406 166.057C806.646 167.204 808.366 168.844 809.566 170.977C810.793 173.084 811.406 175.537 811.406 178.337C811.406 181.137 810.793 183.591 809.566 185.697C808.366 187.777 806.646 189.391 804.406 190.537C802.193 191.684 799.619 192.257 796.686 192.257H786.926V164.337H796.686ZM796.486 187.497C799.419 187.497 801.686 186.697 803.286 185.097C804.886 183.497 805.686 181.244 805.686 178.337C805.686 175.431 804.886 173.164 803.286 171.537C801.686 169.884 799.419 169.057 796.486 169.057H792.526V187.497H796.486ZM831.198 168.857V175.857H840.598V180.297H831.198V187.697H841.798V192.257H825.598V164.297H841.798V168.857H831.198ZM871.287 192.257L865.127 181.377H862.487V192.257H856.887V164.337H867.367C869.527 164.337 871.367 164.724 872.887 165.497C874.407 166.244 875.54 167.271 876.287 168.577C877.06 169.857 877.447 171.297 877.447 172.897C877.447 174.737 876.914 176.404 875.847 177.897C874.78 179.364 873.194 180.377 871.087 180.937L877.767 192.257H871.287ZM862.487 177.177H867.167C868.687 177.177 869.82 176.817 870.567 176.097C871.314 175.351 871.687 174.324 871.687 173.017C871.687 171.737 871.314 170.751 870.567 170.057C869.82 169.337 868.687 168.977 867.167 168.977H862.487V177.177ZM902.152 192.537C900.205 192.537 898.445 192.204 896.872 191.537C895.325 190.871 894.099 189.911 893.192 188.657C892.285 187.404 891.819 185.924 891.792 184.217H897.792C897.872 185.364 898.272 186.271 898.992 186.937C899.739 187.604 900.752 187.937 902.032 187.937C903.339 187.937 904.365 187.631 905.112 187.017C905.859 186.377 906.232 185.551 906.232 184.537C906.232 183.711 905.979 183.031 905.472 182.497C904.965 181.964 904.325 181.551 903.552 181.257C902.805 180.937 901.765 180.591 900.432 180.217C898.619 179.684 897.139 179.164 895.992 178.657C894.872 178.124 893.899 177.337 893.072 176.297C892.272 175.231 891.872 173.817 891.872 172.057C891.872 170.404 892.285 168.964 893.112 167.737C893.939 166.511 895.099 165.577 896.592 164.937C898.085 164.271 899.792 163.937 901.712 163.937C904.592 163.937 906.925 164.644 908.712 166.057C910.525 167.444 911.525 169.391 911.712 171.897H905.552C905.499 170.937 905.085 170.151 904.312 169.537C903.565 168.897 902.565 168.577 901.312 168.577C900.219 168.577 899.339 168.857 898.672 169.417C898.032 169.977 897.712 170.791 897.712 171.857C897.712 172.604 897.952 173.231 898.432 173.737C898.939 174.217 899.552 174.617 900.272 174.937C901.019 175.231 902.059 175.577 903.392 175.977C905.205 176.511 906.685 177.044 907.832 177.577C908.979 178.111 909.965 178.911 910.792 179.977C911.619 181.044 912.032 182.444 912.032 184.177C912.032 185.671 911.645 187.057 910.872 188.337C910.099 189.617 908.965 190.644 907.472 191.417C905.979 192.164 904.205 192.537 902.152 192.537Z" fill="#31A9DE"/>
<defs>
<linearGradient id="paint0_linear_170_408" x1="123.012" y1="80.1992" x2="103.773" y2="69.2549" gradientUnits="userSpaceOnUse">
<stop offset="0.335" stop-color="#085C94"/>
<stop offset="0.85" stop-color="#30A9DE"/>
</linearGradient>
<linearGradient id="paint1_linear_170_408" x1="117.092" y1="102.653" x2="110.586" y2="92.1994" gradientUnits="userSpaceOnUse">
<stop offset="0.335" stop-color="#085C94"/>
<stop offset="0.85" stop-color="#30A9DE"/>
</linearGradient>
<linearGradient id="paint2_linear_170_408" x1="103.309" y1="155.485" x2="114.253" y2="136.246" gradientUnits="userSpaceOnUse">
<stop offset="0.335" stop-color="#085C94"/>
<stop offset="0.85" stop-color="#30A9DE"/>
</linearGradient>
<linearGradient id="paint3_linear_170_408" x1="80.8559" y1="149.563" x2="91.3099" y2="143.057" gradientUnits="userSpaceOnUse">
<stop offset="0.335" stop-color="#085C94"/>
<stop offset="0.85" stop-color="#30A9DE"/>
</linearGradient>
<linearGradient id="paint4_linear_170_408" x1="24.7182" y1="132.25" x2="43.9576" y2="143.194" gradientUnits="userSpaceOnUse">
<stop offset="0.335" stop-color="#085C94"/>
<stop offset="0.85" stop-color="#30A9DE"/>
</linearGradient>
<linearGradient id="paint5_linear_170_408" x1="30.6389" y1="109.795" x2="37.1448" y2="120.249" gradientUnits="userSpaceOnUse">
<stop offset="0.335" stop-color="#085C94"/>
<stop offset="0.85" stop-color="#30A9DE"/>
</linearGradient>
<linearGradient id="paint6_linear_170_408" x1="51.3125" y1="52.7719" x2="40.3682" y2="72.0113" gradientUnits="userSpaceOnUse">
<stop offset="0.335" stop-color="#085C94"/>
<stop offset="0.85" stop-color="#30A9DE"/>
</linearGradient>
<linearGradient id="paint7_linear_170_408" x1="73.7652" y1="58.6946" x2="63.3112" y2="65.2004" gradientUnits="userSpaceOnUse">
<stop offset="0.335" stop-color="#085C94"/>
<stop offset="0.85" stop-color="#30A9DE"/>
</linearGradient>
</defs>
</svg>
